<?xml version="1.0" standalone="no"?>
<!DOCTYPE svg PUBLIC "-//W3C//DTD SVG 20010904//EN" "http://www.w3.org/TR/2001/REC-SVG-20010904/DTD/svg10.dtd">
<svg xmlns="http://www.w3.org/2000/svg" version="1.0" width="500.000000pt" height="500.000000pt" viewBox="0 0 500.000000 500.000000" preserveAspectRatio="xMidYMid meet">
<metadata>
Created by potrace 1.16, written by Peter Selinger 2001-2019
<meta name="Producer" content="Online-Convert"/></metadata>
<g transform="translate(0.000000,500.000000) scale(0.100000,-0.100000)" fill="#000000" stroke="none">
<path d="M0 2500 l0 -2500 2500 0 2500 0 0 2500 0 2500 -2500 0 -2500 0 0 -2500z m2440 1296 c0 -10 -16 -17 -47 -21 -80 -10 -91 -14 -120 -41 l-28 -26 -3 -482 c-3 -478 -3 -483 18 -509 19 -24 28 -27 85 -27 85 0 95 -5 95 -46 l0 -34 -272 2 c-191 2 -272 6 -275 14 -2 7 18 14 53 19 77 9 110 41 119 116 4 30 5 256 3 502 l-3 449 -32 28 c-23 20 -48 31 -82 36 -28 4 -52 12 -55 20 -4 12 40 14 269 14 233 0 275 -2 275 -14z m420 -460 c0 -16 -30 -26 -80 -26 -40 0 -93 -29 -110 -59 -7 -14 -10 -170 -8 -507 3 -472 4 -486 23 -500 17 -13 55 -15 220 -12 183 3 204 5 241 25 53 28 98 80 137 159 28 58 57 84 57 52 0 -7 -22 -80 -48 -163 l-48 -150 -467 -3 c-394 -2 -467 0 -467 12 0 9 18 16 57 21 42 5 63 14 84 34 25 25 27 35 34 146 11 167 0 853 -13 887 -15 37 -50 58 -111 65 -33 4 -51 10 -51 19 0 12 50 14 275 14 227 0 275 -2 275 -14z m60 -408 c0 -6 -21 -80 -47 -165 l-48 -153 -62 0 -63 0 0 49 c0 44 2 50 30 61 43 18 104 88 137 159 25 54 53 80 53 49z m-1200 -938 c11 -21 4 -70 -11 -70 -5 0 -9 9 -9 20 0 30 -41 46 -76 29 -36 -18 -60 -60 -85 -151 -11 -40 -29 -88 -40 -106 -10 -18 -19 -35 -19 -36 0 -7 89 -26 118 -26 16 0 42 10 57 22 l28 22 -17 -26 c-31 -48 -104 -62 -173 -33 -33 14 -41 14 -78 -1 -23 -8 -57 -14 -76 -12 -29 2 -34 7 -34 28 0 39 42 57 105 44 50 -10 52 -10 64 15 7 14 23 58 34 97 12 39 36 93 54 119 51 74 135 109 158 65z m1310 0 c11 -21 4 -70 -11 -70 -5 0 -9 9 -9 20 0 25 -33 42 -65 34 -39 -10 -62 -48 -95 -153 -16 -53 -36 -105 -44 -116 -22 -29 -20 -31 28 -44 61 -15 97 -14 124 4 20 15 21 14 16 0 -9 -22 -57 -45 -93 -45 -17 0 -50 7 -74 15 -40 13 -49 13 -80 0 -60 -25 -117 -18 -117 15 0 38 73 61 129 42 37 -13 39 -10 76 105 29 94 73 166 117 193 43 26 84 26 98 0z m-1067 -242 c-3 -18 -15 -51 -25 -72 l-20 -39 22 -44 c19 -38 20 -48 10 -73 -15 -36 -58 -54 -111 -47 -75 10 -104 70 -51 105 23 15 23 15 11 -11 -22 -48 30 -97 87 -83 35 9 45 43 27 89 -9 20 -13 46 -10 56 3 14 1 18 -9 14 -21 -8 -44 16 -44 46 1 39 32 73 76 81 21 4 40 8 41 9 1 0 0 -14 -4 -31z m1561 0 c-4 -18 -15 -51 -26 -72 l-20 -40 23 -44 c21 -44 22 -46 4 -78 -20 -37 -60 -51 -119 -40 -65 12 -86 72 -37 105 23 15 24 15 13 -6 -31 -57 49 -121 100 -80 24 19 27 38 10 80 -8 20 -12 45 -10 55 4 13 0 18 -15 18 -40 -2 -48 52 -14 98 7 10 31 22 53 26 21 4 40 8 41 9 1 0 0 -14 -3 -31z"/>
</g>
</svg>
